# AST/ASF file generated using VICON BodyLanguage
# -----------------------------------------------
:version 1.10
:name VICON
:units
  mass 1.0
  length 0.45
  angle deg
:documentation
   .ast/.asf automatically generated from VICON data using
   VICON BodyBuilder and BodyLanguage model FoxedUp or BRILLIANT.MOD
:root
   order TX TY TZ RX RY RZ
   axis XYZ
   position 0 0 0  
   orientation 0 0 0 
:bonedata
  begin
     id 1 
     name lhipjoint
     direction 0.635376 -0.686425 0.353719 
     length 2.47244 
     axis 0 0 0  XYZ
  end
  begin
     id 2 
     name lfemur
     direction 0.34202 -0.939693 0  
     length 7.25268  
     axis 0 0 20  XYZ
    dof rx ry rz
    limits (-160.0 20.0)
           (-70.0 70.0)
           (-60.0 70.0)
  end
  begin
     id 3 
     name ltibia
     direction 0.34202 -0.939693 0   
     length 7.6767   
     axis 0 0 20   XYZ
    dof rx
    limits (-10.0 170.0)
  end
  begin
     id 4 
     name lfoot
     direction 0.0803374 -0.220725 0.972022   
     length 2.22945   
     axis -90 7.62852e-016 20   XYZ
    dof rx rz
    limits (-45.0 90.0)
           (-70.0 20.0)
  end
  begin
     id 5 
     name ltoes
     direction 1.53579e-011 -4.21994e-011 1   
     length 1.11848   
     axis -90 7.62852e-016 20   XYZ
    dof rx
    limits (-90.0 20.0)
  end
  begin
     id 6 
     name rhipjoint
     direction -0.664428 -0.664335 0.342336   
     length 2.55466  
     axis 0 0 0  XYZ 
  end
  begin
     id 7 
     name rfemur
     direction -0.34202 -0.939693 0   
     length 6.83172   
     axis 0 0 -20   XYZ
    dof rx ry rz
    limits (-160.0 20.0)
           (-70.0 70.0)
           (-70.0 60.0)
  end
  begin
     id 8 
     name rtibia
     direction -0.34202 -0.939693 0   
     length 7.62692   
     axis 0 0 -20   XYZ
    dof rx
    limits (-10.0 170.0)
 end
 begin
     id 9 
     name rfoot
     direction -0.0949276 -0.260811 0.960711   
     length 2.19684  
     axis -90 -7.62852e-016 -20   XYZ
    dof rx rz
    limits (-45.0 90.0)
           (-20.0 70.0)
  end
  begin
     id 10 
     name rtoes
     direction -1.53543e-011 -4.2183e-011 1   
     length 1.09848   
     axis -90 -7.62852e-016 -20   XYZ
    dof rx
    limits (-90.0 20.0)
  end
  begin
     id 11 
     name lowerback
     direction 0.0118782 0.999815 -0.0151555   
     length 2.15772   
     axis 0 0 0   XYZ
    dof rx ry rz
    limits (-20.0 45.0)
           (-30.0 30.0)
           (-30.0 30.0)
  end
  begin
     id 12 
     name upperback
     direction 0.00130825 0.999065 0.0432113   
     length 2.14863   
     axis 0 0 0   XYZ
    dof rx ry rz
    limits (-20.0 45.0)
           (-30.0 30.0)
           (-30.0 30.0)
  end
  begin
     id 13 
     name thorax
     direction -0.00347005 0.998773 0.0494011   
     length 2.14936   
     axis 0 0 0   XYZ
    dof rx ry rz
    limits (-20.0 45.0)
           (-30.0 30.0)
           (-30.0 30.0)
  end
  begin
     id 14 
     name lowerneck
     direction -0.0262159 0.99424 0.103921   
     length 1.69373   
     axis 0 0 0   XYZ
    dof rx ry rz
    limits (-20.0 45.0)
           (-30.0 30.0)
           (-30.0 30.0)
  end
  begin
     id 15 
     name upperneck
     direction 0.0353511 0.977394 -0.20845   
     length 1.70857   
     axis 0 0 0   XYZ
    dof rx ry rz
    limits (-20.0 45.0)
           (-30.0 30.0)
           (-30.0 30.0)
  end
  begin
     id 16
     name head
     direction 0.0139214 0.996594 -0.0812836  
     length 1.72777  
     axis 0 0 0   XYZ
    dof rx ry rz
    limits (-20.0 45.0)
           (-30.0 30.0)
           (-30.0 30.0)
  end
  begin
     id 17 
     name lclavicle
     direction 0.841247 0.537205 -0.0609508  
     length 3.55371  
     axis 0 0 0   XYZ
    dof ry rz
    limits (-20.0 10.0)
           (0.0 20.0)
  end
  begin
     id 18 
     name lhumerus
     direction 1 -4.48964e-011 1.60116e-018   
     length 4.91377   
     axis -180 -30 -90   XYZ
    dof rx ry rz
    limits (-60.0 90.0)
           (-90.0 90.0)
           (-90.0 90.0)
  end
  begin
     id 19
     name lradius
     direction 1 -4.48989e-011 -8.93847e-027   
     length 3.00291   
     axis -180 -30 -90   XYZ
    dof rx
    limits (-10.0 170.0)
  end
  begin
     id 20
     name lwrist
     direction 1 -4.48932e-011 -7.31504e-027   
     length 1.50145   
     axis 5.74121e-015 90 90   XYZ
    dof ry
    limits (-180.0 0.0)
 end
  begin
     id 21 
     name lhand
     direction 1 -4.48971e-011 -1.46301e-026   
     length 0.450922   
     axis 9.33524e-015 90 90   XYZ
    dof rx rz
    limits (-90.0 90.0)
           (-45.0 45.0)
  end
  begin
     id 22 
     name lfingers
     direction 1 -4.49039e-011 -2.92602e-026   
     length 0.363545   
     axis 1.86705e-014 90 90   XYZ
    dof rx
    limits (0.0 90.0)
  end
  begin
     id 23
     name lthumb
     direction 0.707107 -6.34941e-011 0.707107   
     length 0.52198   
     axis -90 45 2.85299e-015   XYZ
    dof rx rz
    limits (-45.0 45.0)
           (-45.0 45.0)
  end
  begin
     id 24 
     name rclavicle
     direction -0.825079 0.56158 -0.0622297   
     length 3.39909  
     axis 0 0 0   XYZ 
    dof ry rz
    limits (-10.0 20.0)
           (-20.0 0.0)
  end
  begin
     id 25 
     name rhumerus
     direction -1 -4.48965e-011 1.61691e-027  
     length 4.86725   
     axis -180 30 90   XYZ
    dof rx ry rz
    limits (-90.0 60.0)
           (-90.0 90.0)
           (-90.0 90.0)
  end
  begin
     id 26 
     name rradius
     direction -1 -4.48964e-011 -2.25776e-027   
     length 3.17144   
     axis -180 30 90   XYZ
    dof rx
    limits (-10.0 170.0)
  end
  begin
     id 27 
     name rwrist
     direction -1 -4.48961e-011 -7.31504e-027   
     length 1.58572   
     axis 5.74121e-015 -90 -90   XYZ
    dof ry
    limits (-180.0 0.0)
  end
  begin
     id 28
     name rhand
     direction -1 -4.49013e-011 -1.46301e-026   
     length 0.419368   
     axis 9.33524e-015 -90 -90   XYZ
    dof rx rz
    limits (-90.0 90.0)
           (-45.0 45.0)
  end
  begin
     id 29
     name rfingers
     direction -1 -4.489e-011 -2.92602e-026   
     length 0.338105   
     axis 1.86705e-014 -90 -90   XYZ
    dof rx
    limits (0.0 90.0)
  end
  begin
     id 30
     name rthumb
     direction -0.707107 -6.35022e-011 0.707107   
     length 0.485453   
     axis -90 -45 -2.85299e-015   XYZ
    dof rx rz
    limits (-45.0 45.0)
           (-45.0 45.0)
  end
:hierarchy
  begin
    root lhipjoint rhipjoint lowerback
    lhipjoint lfemur
    lfemur ltibia
    ltibia lfoot
    lfoot ltoes
    rhipjoint rfemur
    rfemur rtibia
    rtibia rfoot
    rfoot rtoes
    lowerback upperback
    upperback thorax
    thorax lowerneck lclavicle rclavicle
    lowerneck upperneck
    upperneck head
    lclavicle lhumerus
    lhumerus lradius
    lradius lwrist
    lwrist lhand lthumb
    lhand lfingers
    rclavicle rhumerus
    rhumerus rradius
    rradius rwrist
    rwrist rhand rthumb
    rhand rfingers
  end

#!OML:ASF H:\Swim 2\Project 1\Capture day 1\Session 1\male.ASF
:FULLY-SPECIFIED
:DEGREES
1209
root 1.13754 14.4821 9.2015 107.489 3.19051 -1.89194
lowerback -24.1206 -5.33165 1.76445
upperback -5.32789 -7.72096 0.320542
thorax 7.26669 -3.82845 -2.93973
lowerneck -14.4596 6.69027 -6.67599
upperneck 17.8063 11.6603 -5.92285
head 7.92834 4.41863 0.383902
rclavicle -4.13472e-014 5.36719e-015
rhumerus -14.4566 33.3724 -57.0028
rradius 75.68
rwrist 1.968
rhand -33.7184 1.61399
rfingers 7.12502
rthumb -6.90777 -28.2533
lclavicle -4.13472e-014 5.36719e-015
lhumerus 84.776 38.8345 45.1133
lradius 24.0375
lwrist 12.1328
lhand -41.2552 -4.77021
lfingers 7.12502
lthumb -14.1775 24.726
rfemur -43.2963 -1.14206 20.2933
rtibia 44.069
rfoot 29.9186 3.01644
rtoes 14.6055
lfemur -45.8871 -5.33955 -16.3611
ltibia 33.8386
lfoot 3.27573 11.6692
ltoes 11.1265
1210
root 1.11081 14.4838 9.19401 107.434 2.94479 -2.27142
lowerback -24.2742 -5.59175 2.0857
upperback -5.27271 -8.13674 0.000895715
thorax 7.29063 -4.02894 -3.60045
lowerneck -14.8632 6.88292 -6.74439
upperneck 18.0539 11.946 -5.67494
head 8.0598 4.5414 0.523965
rclavicle 3.49861e-014 1.47101e-014
rhumerus -16.4239 34.0813 -58.4327
rradius 74.9742
rwrist 2.04747
rhand -33.4281 1.32522
rfingers 7.12502
rthumb -6.62754 -28.5511
lclavicle 3.49861e-014 1.47101e-014
lhumerus 84.0515 38.9918 44.1575
lradius 24.1916
lwrist 11.9844
lhand -41.4631 -4.77462
lfingers 7.12502
lthumb -14.3779 24.7074
rfemur -43.8985 -0.721801 20.1518
rtibia 43.4975
rfoot 30.1642 2.91623
rtoes 14.5067
lfemur -45.0663 -4.72067 -16.7444
ltibia 34.9553
lfoot 3.87369 10.2304
ltoes 11.0546
1211
root 1.08607 14.4861 9.18861 107.388 2.68148 -2.60524
lowerback -24.425 -5.84459 2.35189
upperback -5.23263 -8.53098 -0.296924
thorax 7.29912 -4.22033 -4.19998
lowerneck -15.2196 7.05127 -6.81789
upperneck 18.2919 12.2019 -5.46424
head 8.18175 4.64825 0.648893
rclavicle 9.54166e-015 3.08116e-014
rhumerus -18.5045 34.7172 -59.7782
rradius 74.4322
rwrist 2.01823
rhand -33.257 1.21692
rfingers 7.12502
rthumb -6.46228 -28.6645
lclavicle 9.54166e-015 3.08116e-014
lhumerus 83.3891 39.0605 43.4577
lradius 24.4006
lwrist 11.6669
lhand -41.6326 -4.94523
lfingers 7.12502
lthumb -14.5412 24.5251
rfemur -44.4743 -0.326806 19.9895
rtibia 42.7112
rfoot 30.2123 2.69118
rtoes 14.4336
lfemur -44.191 -4.19285 -17.0996
ltibia 35.993
lfoot 4.30518 8.93324
ltoes 10.7405
1212
root 1.06306 14.489 9.1864 107.349 2.40678 -2.89201
lowerback -24.572 -6.08901 2.57159
upperback -5.20348 -8.90402 -0.573699
thorax 7.29723 -4.40261 -4.74424
lowerneck -15.5374 7.19915 -6.89806
upperneck 18.522 12.4354 -5.29298
head 8.29671 4.74176 0.759048
rclavicle 9.22361e-014 -1.39149e-015
rhumerus -20.6822 35.2753 -61.0357
rradius 74.0672
rwrist 1.83706
rhand -33.2298 1.27673
rfingers 7.12502
rthumb -6.43606 -28.6055
lclavicle 9.22361e-014 -1.39149e-015
lhumerus 82.7842 39.057 42.9833
lradius 24.6502
lwrist 11.1895
lhand -41.7655 -5.28352
lfingers 7.12502
lthumb -14.6693 24.1776
rfemur -44.9974 0.0516901 19.8098
rtibia 41.6848
rfoot 30.0507 2.32076
rtoes 14.3949
lfemur -43.2641 -3.75113 -17.425
ltibia 36.9437
lfoot 4.59526 7.79912
ltoes 10.1956
1213
root 1.04144 14.4923 9.1882 107.315 2.13135 -3.13077
lowerback -24.7157 -6.32246 2.75907
upperback -5.17996 -9.25583 -0.830772
thorax 7.29059 -4.57528 -5.24307
lowerneck -15.825 7.3309 -6.97709
upperneck 18.7449 12.6533 -5.16867
head 8.40761 4.8244 0.851709
rclavicle 7.31528e-014 4.13472e-014
rhumerus -22.9371 35.7592 -62.2016
rradius 73.8793
rwrist 1.48981
rhand -33.3534 1.47219
rfingers 7.12502
rthumb -6.55537 -28.4063
lclavicle 7.31528e-014 4.13472e-014
lhumerus 82.2344 38.999 42.6916
lradius 24.9171
lwrist 10.5715
lhand -41.8661 -5.76428
lfingers 7.12502
lthumb -14.7661 23.6897
rfemur -45.4394 0.4241 19.62
rtibia 40.3947
rfoot 29.6825 1.78301
rtoes 14.4073
lfemur -42.2928 -3.38573 -17.7149
ltibia 37.8099
lfoot 4.78674 6.83887
ltoes 9.47531
1214
root 1.02082 14.4959 9.19432 107.285 1.86913 -3.31956
lowerback -24.8572 -6.54184 2.92985
upperback -5.15685 -9.58619 -1.06797
thorax 7.28467 -4.73761 -5.70538
lowerneck -16.0919 7.4511 -7.04143
upperneck 18.9668 12.8623 -5.10008
head 8.51995 4.8984 0.923161
rclavicle 9.85972e-014 3.79679e-014
rhumerus -25.2502 36.1813 -63.2709
rradius 73.8577
rwrist 0.988536
rhand -33.6172 1.75723
rfingers 7.12502
rthumb -6.81007 -28.1132
lclavicle 9.85972e-014 3.79679e-014
lhumerus 81.7376 38.9045 42.5316
lradius 25.1741
lwrist 9.84555
lhand -41.94 -6.34083
lfingers 7.12502
lthumb -14.8374 23.1079
rfemur -45.7737 0.80152 19.4301
rtibia 38.8233
rfoot 29.1221 1.06307
rtoes 14.4842
lfemur -41.2894 -3.0825 -17.9605
ltibia 38.6043
lfoot 4.93043 6.0473
ltoes 8.68579
1215
root 1.00083 14.4996 9.20443 107.257 1.63454 -3.45502
lowerback -24.9978 -6.74434 3.09512
upperback -5.12991 -9.89436 -1.28221
thorax 7.28485 -4.88859 -6.13439
lowerneck -16.3437 7.56187 -7.07953
upperneck 19.1939 13.0648 -5.0912
head 8.63822 4.96441 0.970974
rclavicle 1.33583e-013 2.08724e-014
rhumerus -27.6064 36.5596 -64.2347
rradius 73.9833
rwrist 0.360139
rhand -33.9888 2.08508
rfingers 7.12502
rthumb -7.16874 -27.7735
lclavicle 1.33583e-013 2.08724e-014
lhumerus 81.2927 38.79 42.453
lradius 25.3936
lwrist 9.05735
lhand -41.994 -6.95033
lfingers 7.12502
lthumb -14.8893 22.4946
rfemur -45.9793 1.19475 19.249
rtibia 36.9644
rfoot 28.3872 0.15964
rtoes 14.6429
lfemur -40.272 -2.82483 -18.1522
ltibia 39.349
lfoot 5.07402 5.40244
ltoes 7.96547
1216
root 0.981086 14.503 9.21766 107.231 1.43745 -3.53362
lowerback -25.1366 -6.92904 3.25607
upperback -5.09659 -10.1796 -1.46812
thorax 7.29554 -5.02738 -6.52497
lowerneck -16.5855 7.66165 -7.08672
upperneck 19.4331 13.258 -5.13843
head 8.76611 5.02115 0.995617
rclavicle -5.08889e-014 1.61016e-014
rhumerus -29.9957 36.9155 -65.0818
rradius 74.2302
rwrist -0.363265
rhand -34.4343 2.42439
rfingers 7.12502
rthumb -7.59881 -27.4191
lclavicle -5.08889e-014 1.61016e-014
lhumerus 80.8935 38.6706 42.3987
lradius 25.5505
lwrist 8.27226
lhand -42.0322 -7.5227
lfingers 7.12502
lthumb -14.9261 21.9195
rfemur -46.0422 1.61287 19.0803
rtibia 34.8253
rfoot 27.4906 -0.908902
rtoes 14.8959
lfemur -39.2617 -2.5982 -18.2836
ltibia 40.0722
lfoot 5.25941 4.86641
ltoes 7.4684
1217
root 0.961277 14.506 9.23285 107.207 1.28113 -3.55321
lowerback -25.271 -7.09742 3.40442
upperback -5.05644 -10.4418 -1.61961
thorax 7.31973 -5.15369 -6.86575
lowerneck -16.8187 7.74579 -7.06784
upperneck 19.6882 13.435 -5.22912
head 8.90423 5.06596 1.00109
rclavicle -6.99722e-014 -9.34288e-015
rhumerus -32.413 37.2715 -65.8031
rradius 74.5704
rwrist -1.1595
rhand -34.9131 2.75948
rfingers 7.12502
rthumb -8.06093 -27.0668
lclavicle -6.99722e-014 -9.34288e-015
lhumerus 80.5312 38.5583 42.3192
lradius 25.6269
lwrist 7.56
lhand -42.0543 -7.99187
lfingers 7.12502
lthumb -14.9475 21.4487
rfemur -45.9554 2.06136 18.9214
rtibia 32.4269
rfoot 26.4369 -2.10731
rtoes 15.2455
lfemur -38.2818 -2.39414 -18.3531
ltibia 40.8059
lfoot 5.50479 4.40073
ltoes 7.26384
1218
root 0.941103 14.5087 9.24877 107.183 1.16118 -3.51562
lowerback -25.3973 -7.25333 3.5255
upperback -5.0108 -10.6822 -1.73277
thorax 7.35869 -5.26807 -7.14424
lowerneck -17.0433 7.80911 -7.03381
upperneck 19.9585 13.5875 -5.34524
head 9.05049 5.09637 0.993668
rclavicle -5.08889e-014 -2.38542e-014
rhumerus -34.8545 37.6486 -66.3982
rradius 74.9742
rwrist -2.01897
rhand -35.3873 3.09712
rfingers 7.12502
rthumb -8.51858 -26.7111
lclavicle -5.08889e-014 -2.38542e-014
lhumerus 80.1968 38.462 42.1746
lradius 25.6126
lwrist 6.98297
lhand -42.0513 -8.30604
lfingers 7.12502
lthumb -14.9446 21.1348
rfemur -45.7178 2.54069 18.7654
rtibia 29.8001
rfoot 25.2307 -3.39206
rtoes 15.6824
lfemur -37.3549 -2.21155 -18.3652
ltibia 41.5819
lfoot 5.81042 3.97221
ltoes 7.34328
1219
root 0.920359 14.5111 9.26426 107.157 1.06847 -3.42664
lowerback -25.5112 -7.40192 3.60514
upperback -4.96226 -10.9034 -1.80733
thorax 7.4108 -5.37217 -7.35223
lowerneck -17.2547 7.84815 -6.99818
upperneck 20.2383 13.709 -5.46732
head 9.1996 5.11115 0.980254
rclavicle 1.17681e-013 4.07509e-014
rhumerus -37.3188 38.0672 -66.8788
rradius 75.4123
rwrist -2.94499
rhand -35.8306 3.46616
rfingers 7.12502
rthumb -8.94629 -26.3242
lclavicle 1.17681e-013 4.07509e-014
lhumerus 79.8817 38.3859 41.9457
lradius 25.5094
lwrist 6.57923
lhand -42.0081 -8.43784
lfingers 7.12502
lthumb -14.903 21.0061
rfemur -45.3291 3.04082 18.6096
rtibia 26.9815
rfoot 23.8819 -4.71577
rtoes 16.1838
lfemur -36.5003 -2.05604 -18.3287
ltibia 42.4289
lfoot 6.16213 3.55658
ltoes 7.61684
1220
root 0.898947 14.5133 9.27833 107.127 0.994059 -3.29464
lowerback -25.6095 -7.54798 3.63916
upperback -4.9132 -11.1101 -1.84841
thorax 7.47212 -5.46872 -7.4935
lowerneck -17.4465 7.86423 -6.97206
upperneck 20.5195 13.7979 -5.57588
head 9.34501 5.11196 0.967896
rclavicle 8.26944e-014 4.45278e-014
rhumerus -39.8009 38.5431 -67.272
rradius 75.856
rwrist -3.95125
rhand -36.2225 3.9131
rfingers 7.12502
rthumb -9.32449 -25.8607
lclavicle 8.26944e-014 4.45278e-014
lhumerus 79.5787 38.3314 41.6266
lradius 25.3279
lwrist 6.35764
lhand -41.9092 -8.38942
lfingers 7.12502
lthumb -14.8077 21.0615
rfemur -44.7878 3.54407 18.4609
rtibia 24.0069
rfoot 22.4249 -6.04108
rtoes 16.7192
lfemur -35.7328 -1.93756 -18.2521
ltibia 43.3694
lfoot 6.53955 3.1383
ltoes 7.96708
1221
root 0.8769 14.5156 9.29017 107.088 0.929156 -3.13016
lowerback -25.6892 -7.69483 3.63075
upperback -4.86538 -11.3068 -1.86551
thorax 7.53683 -5.56043 -7.58052
lowerneck -17.6111 7.8631 -6.95966
upperneck 20.7947 13.8583 -5.65892
head 9.4811 5.10272 0.960933
rclavicle -2.22639e-014 1.98785e-015
rhumerus -42.293 39.0866 -67.6133
rradius 76.2763
rwrist -5.05144
rhand -36.5505 4.49589
rfingers 7.12502
rthumb -9.64096 -25.2635
lclavicle -2.22639e-014 1.98785e-015
lhumerus 79.2852 38.2968 41.2284
lradius 25.0849
lwrist 6.29707
lhand -41.746 -8.19117
lfingers 7.12502
lthumb -14.6505 21.2713
rfemur -44.0874 4.02483 18.3357
rtibia 20.9066
rfoot 20.9194 -7.33593
rtoes 17.2524
lfemur -35.0603 -1.86664 -18.1457
ltibia 44.4166
lfoot 6.9321 2.6996
ltoes 8.34863
1222
root 0.854421 14.5182 9.29925 107.033 0.867408 -2.94289
lowerback -25.7466 -7.84409 3.58983
upperback -4.81929 -11.4976 -1.86986
thorax 7.59822 -5.64973 -7.63117
lowerneck -17.7417 7.85379 -6.95812
upperneck 21.0599 13.8995 -5.71324
head 9.60475 5.08882 0.960652
rclavicle 5.08889e-014 5.56597e-015
rhumerus -44.7826 39.7039 -67.9386
rradius 76.6449
rwrist -6.25079
rhand -36.8143 5.26921
rfingers 7.12502
rthumb -9.89552 -24.4782
lclavicle 5.08889e-014 5.56597e-015
lhumerus 79.001 38.2793 40.7691
lradius 24.7997
lwrist 6.3563
lhand -41.5239 -7.89228
lfingers 7.12502
lthumb -14.4365 21.5856
rfemur -43.214 4.45373 18.2581
rtibia 17.6987
rfoot 19.4529 -8.56352
rtoes 17.728
lfemur -34.4838 -1.85171 -18.0189
ltibia 45.572
lfoot 7.33393 2.22184
ltoes 8.76122
1223
root 0.831884 14.5212 9.30522 106.955 0.802579 -2.74145
lowerback -25.7772 -7.99615 3.52683
upperback -4.7741 -11.6849 -1.87265
thorax 7.65038 -5.73818 -7.66296
lowerneck -17.8331 7.84574 -6.96101
upperneck 21.3124 13.9319 -5.7419
head 9.71448 5.0756 0.966117
rclavicle 5.08889e-014 6.95746e-015
rhumerus -47.2507 40.3964 -68.2766
rradius 76.9335
rwrist -7.53804
rhand -37.004 6.27278
rfingers 7.12502
rthumb -10.0785 -23.4659
lclavicle 5.08889e-014 6.95746e-015
lhumerus 78.7254 38.2771 40.2646
lradius 24.4901
lwrist 6.48852
lhand -41.265 -7.54674
lfingers 7.12502
lthumb -14.187 21.9488
rfemur -42.1432 4.80414 18.25
rtibia 14.3795
rfoot 18.1405 -9.6774
rtoes 18.0814
lfemur -33.9972 -1.89759 -17.8834
ltibia 46.8241
lfoot 7.74042 1.69028
ltoes 9.23032
